<?xml version="1.0" encoding="UTF-8"?>
<!DOCTYPE svg PUBLIC "-//W3C//DTD SVG 1.1//EN" "http://www.w3.org/Graphics/SVG/1.1/DTD/svg11.dtd">
<svg xmlns="http://www.w3.org/2000/svg" version="1.1" width="362px" height="416px" viewBox="80 47 362 416" style="shape-rendering:geometricPrecision; text-rendering:geometricPrecision; image-rendering:optimizeQuality; fill-rule:evenodd; clip-rule:evenodd" xmlns:xlink="http://www.w3.org/1999/xlink">
<g><path style="opacity:1" fill="#5183e1" d="M 138.5,47.5 C 138.5,86.8333 138.5,126.167 138.5,165.5C 122.83,165.667 107.163,165.5 91.5,165C 86.0896,163.257 82.2563,159.757 80,154.5C 79.3333,122.167 79.3333,89.8333 80,57.5C 81.8333,53 85,49.8333 89.5,48C 105.83,47.5001 122.163,47.3334 138.5,47.5 Z"/></g>
<g><path style="opacity:1" fill="#5c8ffa" d="M 138.5,47.5 C 154.503,47.3334 170.503,47.5001 186.5,48C 191.757,50.2563 195.257,54.0896 197,59.5C 197.667,90.5 197.667,121.5 197,152.5C 195.5,159.333 191.333,163.5 184.5,165C 169.17,165.5 153.837,165.667 138.5,165.5C 138.5,126.167 138.5,86.8333 138.5,47.5 Z"/></g>
<g><path style="opacity:1" fill="#8895a1" d="M 335.5,74.5 C 296.5,74.5 257.5,74.5 218.5,74.5C 218.5,75.5 218.5,76.5 218.5,77.5C 216.696,67.6325 220.696,61.1325 230.5,58C 261.5,57.3333 292.5,57.3333 323.5,58C 331.569,60.5654 335.569,66.0654 335.5,74.5 Z"/></g>
<g><path style="opacity:1" fill="#7d838f" d="M 335.5,74.5 C 335.411,82.171 331.744,87.3377 324.5,90C 292.833,90.6667 261.167,90.6667 229.5,90C 223.161,88.1619 219.494,83.9952 218.5,77.5C 218.5,76.5 218.5,75.5 218.5,74.5C 257.5,74.5 296.5,74.5 335.5,74.5 Z"/></g>
<g><path style="opacity:1" fill="#8895a1" d="M 441.5,144.5 C 441.046,142.741 441.046,140.741 441.5,138.5C 367.167,138.5 292.833,138.5 218.5,138.5C 218.5,139.5 218.5,140.5 218.5,141.5C 216.696,131.632 220.696,125.132 230.5,122C 296.833,121.333 363.167,121.333 429.5,122C 440.724,125.613 444.724,133.113 441.5,144.5 Z"/></g>
<g><path style="opacity:1" fill="#7d838f" d="M 441.5,144.5 C 439.326,148.84 435.993,152.006 431.5,154C 364.167,154.667 296.833,154.667 229.5,154C 223.161,152.162 219.494,147.995 218.5,141.5C 218.5,140.5 218.5,139.5 218.5,138.5C 292.833,138.5 367.167,138.5 441.5,138.5C 441.046,140.741 441.046,142.741 441.5,144.5 Z"/></g>
<g><path style="opacity:1" fill="#5c8efa" d="M 138.5,196.5 C 154.17,196.333 169.837,196.5 185.5,197C 191.74,198.908 195.573,203.075 197,209.5C 197.667,240.167 197.667,270.833 197,301.5C 195.573,307.925 191.74,312.092 185.5,314C 169.837,314.5 154.17,314.667 138.5,314.5C 138.5,275.167 138.5,235.833 138.5,196.5 Z"/></g>
<g><path style="opacity:1" fill="#5183e1" d="M 138.5,196.5 C 138.5,235.833 138.5,275.167 138.5,314.5C 122.497,314.667 106.497,314.5 90.5,314C 85.4018,312.567 81.9018,309.4 80,304.5C 79.3333,271.833 79.3333,239.167 80,206.5C 81.9268,201.572 85.4268,198.406 90.5,197C 106.497,196.5 122.497,196.333 138.5,196.5 Z"/></g>
<g><path style="opacity:1" fill="#8996a2" d="M 335.5,223.5 C 296.167,223.5 256.833,223.5 217.5,223.5C 217.86,215.975 221.527,210.808 228.5,208C 260.833,207.333 293.167,207.333 325.5,208C 332.49,210.814 335.823,215.981 335.5,223.5 Z"/></g>
<g><path style="opacity:1" fill="#7d838f" d="M 217.5,223.5 C 256.833,223.5 296.167,223.5 335.5,223.5C 335.823,231.019 332.49,236.186 325.5,239C 293.167,239.667 260.833,239.667 228.5,239C 221.496,236.168 217.829,231.001 217.5,223.5 Z"/></g>
<g><path style="opacity:1" fill="#8996a2" d="M 442.5,287.5 C 367.5,287.5 292.5,287.5 217.5,287.5C 217.86,279.975 221.527,274.808 228.5,272C 296.5,271.333 364.5,271.333 432.5,272C 438.969,275.097 442.303,280.264 442.5,287.5 Z"/></g>
<g><path style="opacity:1" fill="#7d838f" d="M 217.5,287.5 C 292.5,287.5 367.5,287.5 442.5,287.5C 442.303,294.736 438.969,299.903 432.5,303C 364.5,303.667 296.5,303.667 228.5,303C 221.496,300.168 217.829,295.001 217.5,287.5 Z"/></g>
<g><path style="opacity:1" fill="#5c8ffa" d="M 138.5,345.5 C 153.837,345.333 169.17,345.5 184.5,346C 191.333,347.5 195.5,351.667 197,358.5C 197.667,389.5 197.667,420.5 197,451.5C 195.257,456.91 191.757,460.744 186.5,463C 170.503,463.5 154.503,463.667 138.5,463.5C 138.5,424.167 138.5,384.833 138.5,345.5 Z"/></g>
<g><path style="opacity:1" fill="#5183e1" d="M 138.5,345.5 C 138.5,384.833 138.5,424.167 138.5,463.5C 122.163,463.667 105.83,463.5 89.5,463C 85,461.167 81.8333,458 80,453.5C 79.3333,421.167 79.3333,388.833 80,356.5C 82.2563,351.243 86.0896,347.743 91.5,346C 107.163,345.5 122.83,345.333 138.5,345.5 Z"/></g>
<g><path style="opacity:1" fill="#8996a2" d="M 335.5,372.5 C 296.167,372.5 256.833,372.5 217.5,372.5C 218.032,364.585 222.032,359.418 229.5,357C 261.167,356.333 292.833,356.333 324.5,357C 331.744,359.662 335.411,364.829 335.5,372.5 Z"/></g>
<g><path style="opacity:1" fill="#7d848f" d="M 217.5,372.5 C 256.833,372.5 296.167,372.5 335.5,372.5C 335.733,379.533 332.733,384.699 326.5,388C 309.884,389.138 293.217,389.638 276.5,389.5C 261.167,389.333 245.833,389.167 230.5,389C 222.476,386.469 218.142,380.969 217.5,372.5 Z"/></g>
<g><path style="opacity:1" fill="#8996a2" d="M 442.5,436.5 C 367.5,436.5 292.5,436.5 217.5,436.5C 218.032,428.585 222.032,423.418 229.5,421C 296.833,420.333 364.167,420.333 431.5,421C 438.523,423.846 442.19,429.013 442.5,436.5 Z"/></g>
<g><path style="opacity:1" fill="#7d848f" d="M 217.5,436.5 C 292.5,436.5 367.5,436.5 442.5,436.5C 442.479,445.359 438.145,450.859 429.5,453C 363.167,453.667 296.833,453.667 230.5,453C 222.476,450.469 218.142,444.969 217.5,436.5 Z"/></g>
</svg>
