<?xml version="1.0" encoding="UTF-8"?>
<!DOCTYPE svg PUBLIC "-//W3C//DTD SVG 1.1//EN" "http://www.w3.org/Graphics/SVG/1.1/DTD/svg11.dtd">
<svg xmlns="http://www.w3.org/2000/svg" version="1.1" width="512px" height="333px" viewBox="0 64 512 333" style="shape-rendering:geometricPrecision; text-rendering:geometricPrecision; image-rendering:optimizeQuality; fill-rule:evenodd; clip-rule:evenodd" xmlns:xlink="http://www.w3.org/1999/xlink">
<defs>
<linearGradient id="bezelGrad" x1="0.5" y1="0" x2="0.5" y2="1">
<stop offset="0" stop-color="#2a2a2c"/>
<stop offset="0.5" stop-color="#0a0a0c"/>
<stop offset="1" stop-color="#1a1a1c"/>
</linearGradient>
<linearGradient id="glossGrad" x1="0.5" y1="0" x2="0.5" y2="1">
<stop offset="0" stop-color="#ffffff" stop-opacity="0.55"/>
<stop offset="0.35" stop-color="#ffffff" stop-opacity="0.15"/>
<stop offset="0.55" stop-color="#ffffff" stop-opacity="0"/>
<stop offset="0.85" stop-color="#ffffff" stop-opacity="0"/>
<stop offset="1" stop-color="#ffffff" stop-opacity="0.08"/>
</linearGradient>
</defs>
<g><path style="opacity:1" fill="#1296f9" d="M 293.5,64.5 C 270.167,88.1667 246.833,111.833 223.5,135.5C 223.167,135.5 222.833,135.5 222.5,135.5C 221.185,132.994 219.185,131.161 216.5,130C 198.833,129.333 181.167,129.333 163.5,130C 160.333,131.833 157.833,134.333 156,137.5C 155.333,155.167 155.333,172.833 156,190.5C 157.161,193.185 158.994,195.185 161.5,196.5C 161.5,196.833 161.5,197.167 161.5,197.5C 148.202,210.298 135.035,223.298 122,236.5C 121.617,235.944 121.117,235.611 120.5,235.5C 119.844,230.713 117.178,227.546 112.5,226C 94.8333,225.333 77.1667,225.333 59.5,226C 56.3333,227.833 53.8333,230.333 52,233.5C 51.3333,250.833 51.3333,268.167 52,285.5C 53.9788,290.989 57.8121,293.989 63.5,294.5C 42.5,316.167 21.1667,337.5 -0.5,358.5C -0.5,261.5 -0.5,164.5 -0.5,67.5C 0.309426,66.5313 1.30943,65.6979 2.5,65C 99.4994,64.5 196.499,64.3333 293.5,64.5 Z"/></g>
<g><path style="opacity:1" fill="#44cdf9" d="M 293.5,64.5 C 326.5,64.5 359.5,64.5 392.5,64.5C 370.535,86.9653 348.368,109.299 326,131.5C 325.536,132.094 325.369,132.761 325.5,133.5C 324.833,133.167 324.167,132.833 323.5,132.5C 322.942,131.21 321.942,130.377 320.5,130C 302.833,129.333 285.167,129.333 267.5,130C 263.397,132.045 260.564,135.212 259,139.5C 258.333,155.5 258.333,171.5 259,187.5C 259.236,189.811 260.069,191.811 261.5,193.5C 261.833,194.167 262.167,194.833 262.5,195.5C 249.114,207.885 236.447,220.885 224.5,234.5C 224.167,234.5 223.833,234.5 223.5,234.5C 222.643,228.811 219.31,225.644 213.5,225C 197.5,224.333 181.5,224.333 165.5,225C 160.794,226.105 157.627,228.938 156,233.5C 155.333,251.167 155.333,268.833 156,286.5C 157.837,290.181 160.67,292.515 164.5,293.5C 164.5,293.833 164.5,294.167 164.5,294.5C 141.884,315.449 119.884,337.116 98.5,359.5C 65.5,359.5 32.5,359.5 -0.5,359.5C -0.5,359.167 -0.5,358.833 -0.5,358.5C 21.1667,337.5 42.5,316.167 63.5,294.5C 63.8333,294.5 64.1667,294.5 64.5,294.5C 80.5035,294.667 96.5035,294.5 112.5,294C 116.748,292.587 119.415,289.754 120.5,285.5C 121.811,268.961 121.811,252.294 120.5,235.5C 121.117,235.611 121.617,235.944 122,236.5C 135.035,223.298 148.202,210.298 161.5,197.5C 179.79,198.64 198.123,198.807 216.5,198C 219.616,196.551 222.116,194.384 224,191.5C 224.808,172.79 224.641,154.123 223.5,135.5C 246.833,111.833 270.167,88.1667 293.5,64.5 Z"/></g>
<g><path style="opacity:1" fill="#1397f9" d="M 392.5,64.5 C 400.167,64.5 407.833,64.5 415.5,64.5C 386.833,93.8333 357.833,122.833 328.5,151.5C 328.666,146.821 328.499,142.155 328,137.5C 327.338,136.016 326.504,134.683 325.5,133.5C 325.369,132.761 325.536,132.094 326,131.5C 348.368,109.299 370.535,86.9653 392.5,64.5 Z"/></g>
<g><path style="opacity:1" fill="#44cdfa" d="M 415.5,64.5 C 426.833,64.5 438.167,64.5 449.5,64.5C 409.5,105.167 369.167,145.5 328.5,185.5C 328.5,174.5 328.5,163.5 328.5,152.5C 328.5,152.167 328.5,151.833 328.5,151.5C 357.833,122.833 386.833,93.8333 415.5,64.5 Z"/></g>
<g><path style="opacity:1" fill="#1395f9" d="M 449.5,64.5 C 469.169,64.3334 488.836,64.5 508.5,65C 509.691,65.6979 510.691,66.5313 511.5,67.5C 511.5,164.833 511.5,262.167 511.5,359.5C 392.833,359.5 274.167,359.5 155.5,359.5C 189.465,325.035 223.632,290.701 258,256.5C 258.171,249.321 258.671,242.321 259.5,235.5C 259.5,241.833 259.5,248.167 259.5,254.5C 259.334,264.839 259.5,275.172 260,285.5C 261.474,289.641 264.307,292.474 268.5,294C 285.167,294.667 301.833,294.667 318.5,294C 323.667,292.833 326.833,289.667 328,284.5C 328.667,267.833 328.667,251.167 328,234.5C 326.5,230.333 323.667,227.5 319.5,226C 309.172,225.5 298.839,225.334 288.5,225.5C 282.167,225.5 275.833,225.5 269.5,225.5C 276.321,224.671 283.321,224.171 290.5,224C 299.036,215.632 307.369,207.132 315.5,198.5C 323.472,197.862 327.805,193.528 328.5,185.5C 369.167,145.5 409.5,105.167 449.5,64.5 Z"/></g>
<g><path style="opacity:1" fill="#f8ae27" d="M 59.5,129.5 C 76.8365,129.333 94.1699,129.5 111.5,130C 116.206,131.105 119.373,133.938 121,138.5C 121.667,155.5 121.667,172.5 121,189.5C 119.5,193.667 116.667,196.5 112.5,198C 94.8333,198.667 77.1667,198.667 59.5,198C 55.9421,196.108 53.4421,193.275 52,189.5C 51.3333,172.5 51.3333,155.5 52,138.5C 53.6416,134.7 56.1416,131.7 59.5,129.5 Z"/></g>
<g><path style="opacity:1" fill="#44cefa" d="M 222.5,135.5 C 202.5,156.167 182.167,176.5 161.5,196.5C 158.994,195.185 157.161,193.185 156,190.5C 155.333,172.833 155.333,155.167 156,137.5C 157.833,134.333 160.333,131.833 163.5,130C 181.167,129.333 198.833,129.333 216.5,130C 219.185,131.161 221.185,132.994 222.5,135.5 Z"/></g>
<rect x="259" y="130" width="70" height="69" rx="8" ry="8" fill="#909090"/>
<g><path style="opacity:1" fill="#9be6fa" d="M 222.5,135.5 C 222.833,135.5 223.167,135.5 223.5,135.5C 224.641,154.123 224.808,172.79 224,191.5C 222.116,194.384 219.616,196.551 216.5,198C 198.123,198.807 179.79,198.64 161.5,197.5C 161.5,197.167 161.5,196.833 161.5,196.5C 182.167,176.5 202.5,156.167 222.5,135.5 Z"/></g><g><path style="opacity:1" fill="#315d7e" d="M 403.5,170.5 C 426.994,168.501 447.827,174.834 466,189.5C 467.875,197.619 464.708,201.452 456.5,201C 428.479,180.552 400.479,180.552 372.5,201C 364.344,201.5 361.178,197.667 363,189.5C 374.579,179.031 388.079,172.698 403.5,170.5 Z"/></g>
<g><path style="opacity:1" fill="#1597f9" d="M 262.5,195.5 C 268.465,198.243 274.799,199.243 281.5,198.5C 263.202,217.299 244.702,235.965 226,254.5C 225.828,248.319 225.328,242.319 224.5,236.5C 224.5,235.833 224.5,235.167 224.5,234.5C 236.447,220.885 249.114,207.885 262.5,195.5 Z"/></g>
<g><path style="opacity:1" fill="#45cdf9" d="M 281.5,198.5 C 281.833,198.5 282.167,198.5 282.5,198.5C 293.5,198.5 304.5,198.5 315.5,198.5C 307.369,207.132 299.036,215.632 290.5,224C 283.321,224.171 276.321,224.671 269.5,225.5C 263.833,226.5 260.5,229.833 259.5,235.5C 258.671,242.321 258.171,249.321 258,256.5C 223.632,290.701 189.465,325.035 155.5,359.5C 144.167,359.5 132.833,359.5 121.5,359.5C 142.083,338.416 162.917,317.416 184,296.5C 184.464,295.906 184.631,295.239 184.5,294.5C 185.167,294.5 185.833,294.5 186.5,294.5C 196.506,294.666 206.506,294.5 216.5,294C 221.178,292.454 223.844,289.287 224.5,284.5C 225.408,268.666 225.408,252.666 224.5,236.5C 225.328,242.319 225.828,248.319 226,254.5C 244.702,235.965 263.202,217.299 281.5,198.5 Z"/></g>
<g><path style="opacity:1" fill="#315d7f" d="M 403.5,200.5 C 420.785,198.988 436.785,202.821 451.5,212C 458.875,218.956 457.875,224.123 448.5,227.5C 441.645,223.241 434.312,219.741 426.5,217C 410.473,213.257 396.14,216.591 383.5,227C 375.333,228.167 371.833,224.667 373,216.5C 376.042,213.067 379.542,210.234 383.5,208C 390.085,204.936 396.751,202.436 403.5,200.5 Z"/></g>
<g><path style="opacity:1" fill="#03d4da" d="M 120.5,235.5 C 121.811,252.294 121.811,268.961 120.5,285.5C 120.667,269.83 120.5,254.163 120,238.5C 101.298,257.035 82.7983,275.701 64.5,294.5C 64.1667,294.5 63.8333,294.5 63.5,294.5C 57.8121,293.989 53.9788,290.989 52,285.5C 51.3333,268.167 51.3333,250.833 52,233.5C 53.8333,230.333 56.3333,227.833 59.5,226C 77.1667,225.333 94.8333,225.333 112.5,226C 117.178,227.546 119.844,230.713 120.5,235.5 Z"/></g>
<g><path style="opacity:1" fill="#bfe07e" d="M 223.5,234.5 C 203.5,253.833 183.833,273.5 164.5,293.5C 160.67,292.515 157.837,290.181 156,286.5C 155.333,268.833 155.333,251.167 156,233.5C 157.627,228.938 160.794,226.105 165.5,225C 181.5,224.333 197.5,224.333 213.5,225C 219.31,225.644 222.643,228.811 223.5,234.5 Z"/></g>
<g><path style="opacity:1" fill="#f97d89" d="M 269.5,225.5 C 275.833,225.5 282.167,225.5 288.5,225.5C 279.167,235.5 269.5,245.167 259.5,254.5C 259.5,248.167 259.5,241.833 259.5,235.5C 260.5,229.833 263.833,226.5 269.5,225.5 Z"/></g>
<g><path style="opacity:1" fill="#f96464" d="M 288.5,225.5 C 298.839,225.334 309.172,225.5 319.5,226C 323.667,227.5 326.5,230.333 328,234.5C 328.667,251.167 328.667,267.833 328,284.5C 326.833,289.667 323.667,292.833 318.5,294C 301.833,294.667 285.167,294.667 268.5,294C 264.307,292.474 261.474,289.641 260,285.5C 259.5,275.172 259.334,264.839 259.5,254.5C 269.5,245.167 279.167,235.5 288.5,225.5 Z"/></g>
<g><path style="opacity:1" fill="#315d7e" d="M 405.5,230.5 C 420.772,228.042 433.939,232.042 445,242.5C 446.755,248.563 444.588,252.23 438.5,253.5C 433.417,251.598 428.417,249.432 423.5,247C 412.396,243.644 402.396,245.644 393.5,253C 384.163,253.157 381.496,248.99 385.5,240.5C 391.448,235.526 398.115,232.192 405.5,230.5 Z"/></g>
<g><path style="opacity:1" fill="#a1d472" d="M 223.5,234.5 C 223.833,234.5 224.167,234.5 224.5,234.5C 224.5,235.167 224.5,235.833 224.5,236.5C 225.408,252.666 225.408,268.666 224.5,284.5C 224.666,275.161 224.5,265.827 224,256.5C 211.298,269.035 198.798,281.702 186.5,294.5C 185.833,294.5 185.167,294.5 184.5,294.5C 177.833,294.5 171.167,294.5 164.5,294.5C 164.5,294.167 164.5,293.833 164.5,293.5C 183.833,273.5 203.5,253.833 223.5,234.5 Z"/></g>
<g><path style="opacity:1" fill="#7cf2ed" d="M 120.5,285.5 C 119.415,289.754 116.748,292.587 112.5,294C 96.5035,294.5 80.5035,294.667 64.5,294.5C 82.7983,275.701 101.298,257.035 120,238.5C 120.5,254.163 120.667,269.83 120.5,285.5 Z"/></g>
<g><path style="opacity:1" fill="#c0e07d" d="M 224.5,284.5 C 223.844,289.287 221.178,292.454 216.5,294C 206.506,294.5 196.506,294.666 186.5,294.5C 198.798,281.702 211.298,269.035 224,256.5C 224.5,265.827 224.666,275.161 224.5,284.5 Z"/></g>
<g><path style="opacity:1" fill="#1496f9" d="M 164.5,294.5 C 171.167,294.5 177.833,294.5 184.5,294.5C 184.631,295.239 184.464,295.906 184,296.5C 162.917,317.416 142.083,338.416 121.5,359.5C 113.833,359.5 106.167,359.5 98.5,359.5C 119.884,337.116 141.884,315.449 164.5,294.5 Z"/></g>
<path d="M 0 64 H 512 V 397 H 0 Z M 12 76 H 500 V 359 H 12 Z" fill="url(#bezelGrad)" fill-rule="evenodd"/>
<path d="M 0 64 H 512 V 397 H 0 Z M 12 76 H 500 V 359 H 12 Z" fill="url(#glossGrad)" fill-rule="evenodd"/>
<rect x="0.5" y="64.5" width="511" height="332" fill="none" stroke="#6a6a6c" stroke-width="1" opacity="0.7"/>
</svg>
