<?xml version="1.0" encoding="UTF-8"?>
<!DOCTYPE svg PUBLIC "-//W3C//DTD SVG 1.1//EN" "http://www.w3.org/Graphics/SVG/1.1/DTD/svg11.dtd">
<svg xmlns="http://www.w3.org/2000/svg" version="1.1" width="322px" height="512px" viewBox="84 0 322 512" style="shape-rendering:geometricPrecision; text-rendering:geometricPrecision; image-rendering:optimizeQuality; fill-rule:evenodd; clip-rule:evenodd" xmlns:xlink="http://www.w3.org/1999/xlink">
<defs>
<linearGradient id="bezelGrad" x1="0.5" y1="0" x2="0.5" y2="1">
<stop offset="0" stop-color="#2a2a2c"/>
<stop offset="0.5" stop-color="#0a0a0c"/>
<stop offset="1" stop-color="#1a1a1c"/>
</linearGradient>
<linearGradient id="glossGrad" x1="0.5" y1="0" x2="0.5" y2="1">
<stop offset="0" stop-color="#ffffff" stop-opacity="0.55"/>
<stop offset="0.35" stop-color="#ffffff" stop-opacity="0.15"/>
<stop offset="0.55" stop-color="#ffffff" stop-opacity="0"/>
<stop offset="0.85" stop-color="#ffffff" stop-opacity="0"/>
<stop offset="1" stop-color="#ffffff" stop-opacity="0.08"/>
</linearGradient>
<clipPath id="watchScreenClip">
<path d="M 151.5,134.5 C 212.501,134.333 273.501,134.5 334.5,135C 356.975,138.474 370.808,151.307 376,173.5C 376.667,227.167 376.667,280.833 376,334.5C 372.393,357.44 359.226,371.274 336.5,376C 275.5,376.667 214.5,376.667 153.5,376C 131.631,371.464 118.464,358.297 114,336.5C 113.333,281.5 113.333,226.5 114,171.5C 119.792,152.207 132.292,139.873 151.5,134.5 Z"/>
</clipPath>
</defs>
<g><path style="opacity:1" fill="#4a4a4a" d="M 217.5,-0.5 C 235.5,-0.5 253.5,-0.5 271.5,-0.5C 283.689,0.581289 296.022,1.74796 308.5,3C 319.931,3.77738 327.098,9.61071 330,20.5C 331.939,40.4094 335.273,60.0761 340,79.5C 342.452,91.0907 347.952,100.757 356.5,108.5C 282.167,108.5 207.833,108.5 133.5,108.5C 141.192,101.135 146.359,92.1355 149,81.5C 154.06,60.4126 157.727,39.0792 160,17.5C 163.036,10.0562 168.536,5.55623 176.5,4C 190.254,1.95956 203.921,0.459559 217.5,-0.5 Z"/></g>
<g><path style="opacity:1" fill="url(#bezelGrad)" d="M 133.5,108.5 C 207.833,108.5 282.167,108.5 356.5,108.5C 384.103,114.603 400.27,131.603 405,159.5C 405.5,183.164 405.667,206.831 405.5,230.5C 404.167,247.167 404.167,263.833 405.5,280.5C 405.667,304.169 405.5,327.836 405,351.5C 400.27,379.397 384.103,396.397 356.5,402.5C 282.167,402.5 207.833,402.5 133.5,402.5C 107.022,397.522 90.8551,381.856 85,355.5C 84.8333,322.167 84.6667,288.833 84.5,255.5C 84.3499,220.462 84.8499,185.462 86,150.5C 93.2381,126.761 109.071,112.761 133.5,108.5 Z"/></g>
<g><path style="opacity:1" fill="url(#glossGrad)" d="M 133.5,108.5 C 207.833,108.5 282.167,108.5 356.5,108.5C 384.103,114.603 400.27,131.603 405,159.5C 405.5,183.164 405.667,206.831 405.5,230.5C 404.167,247.167 404.167,263.833 405.5,280.5C 405.667,304.169 405.5,327.836 405,351.5C 400.27,379.397 384.103,396.397 356.5,402.5C 282.167,402.5 207.833,402.5 133.5,402.5C 107.022,397.522 90.8551,381.856 85,355.5C 84.8333,322.167 84.6667,288.833 84.5,255.5C 84.3499,220.462 84.8499,185.462 86,150.5C 93.2381,126.761 109.071,112.761 133.5,108.5 Z"/></g>
<path fill="none" stroke="#6a6a6c" stroke-width="1" opacity="0.7" d="M 133.5,108.5 C 207.833,108.5 282.167,108.5 356.5,108.5C 384.103,114.603 400.27,131.603 405,159.5C 405.5,183.164 405.667,206.831 405.5,230.5C 404.167,247.167 404.167,263.833 405.5,280.5C 405.667,304.169 405.5,327.836 405,351.5C 400.27,379.397 384.103,396.397 356.5,402.5C 282.167,402.5 207.833,402.5 133.5,402.5C 107.022,397.522 90.8551,381.856 85,355.5C 84.8333,322.167 84.6667,288.833 84.5,255.5C 84.3499,220.462 84.8499,185.462 86,150.5C 93.2381,126.761 109.071,112.761 133.5,108.5 Z"/>
<g><path style="opacity:1" fill="#1296f9" d="M 151.5,134.5 C 212.501,134.333 273.501,134.5 334.5,135C 356.975,138.474 370.808,151.307 376,173.5C 376.667,227.167 376.667,280.833 376,334.5C 372.393,357.44 359.226,371.274 336.5,376C 275.5,376.667 214.5,376.667 153.5,376C 131.631,371.464 118.464,358.297 114,336.5C 113.333,281.5 113.333,226.5 114,171.5C 119.792,152.207 132.292,139.873 151.5,134.5 Z"/></g>
<g><path style="opacity:1" fill="#f8d382" d="M 189.5,184.5 C 204.427,182.215 215.594,187.549 223,200.5C 227.815,217.025 222.648,229.192 207.5,237C 189.828,241.581 177.661,235.414 171,218.5C 168.549,202.399 174.715,191.065 189.5,184.5 Z"/></g>
<g><path style="opacity:1" fill="#eb756a" d="M 284.5,184.5 C 301.681,182.495 313.181,189.495 319,205.5C 320.845,220.313 315.012,230.813 301.5,237C 284.344,241.672 272.511,235.838 266,219.5C 262.712,202.739 268.879,191.072 284.5,184.5 Z"/></g>
<g><path style="opacity:1" fill="#57c7ec" d="M 190.5,272.5 C 206.534,270.429 217.7,276.763 224,291.5C 226.877,306.912 221.377,318.079 207.5,325C 189.265,329.635 177.098,323.135 171,305.5C 168.794,289.232 175.294,278.232 190.5,272.5 Z"/></g>
<g><path style="opacity:1" fill="#5cc0a7" d="M 284.5,272.5 C 307.511,271.049 319.011,281.715 319,304.5C 313.751,321.387 302.251,328.554 284.5,326C 269.708,320.264 263.208,309.43 265,293.5C 267.923,283.08 274.423,276.08 284.5,272.5 Z"/></g>
<g><path style="opacity:1" fill="#4a4a4a" d="M 133.5,402.5 C 207.833,402.5 282.167,402.5 356.5,402.5C 347.952,410.243 342.452,419.909 340,431.5C 335.273,450.924 331.939,470.591 330,490.5C 327.098,501.389 319.931,507.223 308.5,508C 296.022,509.252 283.689,510.419 271.5,511.5C 253.833,511.5 236.167,511.5 218.5,511.5C 204.584,510.592 190.584,509.092 176.5,507C 168.536,505.444 163.036,500.944 160,493.5C 157.727,471.921 154.06,450.587 149,429.5C 146.359,418.865 141.192,409.865 133.5,402.5 Z"/></g>
<g clip-path="url(#watchScreenClip)">
<line x1="272" y1="134" x2="114" y2="291" stroke="#ffffff" stroke-opacity="0.3" stroke-width="32"/>
<line x1="323" y1="134" x2="114" y2="342" stroke="#ffffff" stroke-opacity="0.25" stroke-width="16"/>
</g>
</svg>
