<svg xmlns="http://www.w3.org/2000/svg" viewBox="0 0 918.6 515.1"><path d="M918.6 515.1H0C14.7 359.4 103.7 226.4 235.1 155.2L158.9 23.2c-4.3-7.4-1.8-16.8 5.6-21.1s16.8-1.8 21.1 5.6l77.2 133.7C321.7 114.5 388 99.5 459.3 99.5s137.6 15 196.5 41.9l77.2-133.7c4.2-7.4 13.7-9.9 21-5.6s9.9 13.7 5.6 21.1l-76.2 132c131.5 71.2 220.5 204.2 235.2 359.9zM670.1 386.1c21.3 0 38.6-17.3 38.5-38.5 0-21.2-17.2-38.5-38.5-38.5-21.2 0-38.5 17.2-38.5 38.5 0 21.2 17.2 38.5 38.5 38.5zm-421.7 0c21.3 0 38.6-17.3 38.5-38.5 0-21.2-17.2-38.5-38.5-38.5-21.2 0-38.5 17.2-38.5 38.5 0 21.2 17.2 38.5 38.5 38.5z" fill="#3DDC84"/></svg>
